<svg xmlns="http://www.w3.org/2000/svg" xmlns:xlink="http://www.w3.org/1999/xlink" width="37" height="37" viewBox="0 0 37 37">
  <defs>
    <clipPath id="clip-path">
      <rect id="Rectangle_75" data-name="Rectangle 75" width="37" height="37" fill="none"/>
    </clipPath>
  </defs>
  <g id="img_logo_mobile" clip-path="url(#clip-path)">
    <g id="Group_4882" data-name="Group 4882" transform="translate(0 0.5)">
      <path id="Path_54" data-name="Path 54" d="M3.394,14.156c.076-.437.082-.884.194-1.312s.364-.809.51-1.227.229-.852.407-1.258.457-.752.667-1.142.249-.876.488-1.248.367-.838.637-1.19.752-.534,1.049-.863.584-.664.906-.968c.383-.36.792-.686,1.208-1.007s.771-.738,1.215-1.02a12.722,12.722,0,0,1,1.268-.4c.413-.178.753-.515,1.155-.647.433-.142.9-.1,1.307-.2.454-.108.869-.265,1.269-.327.486-.076.925-.138,1.3-.167a6.548,6.548,0,0,1,1.308.011,6.2,6.2,0,0,1,1.332.008c.382.03.8.248,1.3.328.407.065.845.1,1.306.217.414.1.823.252,1.262.4.41.138.945,0,1.364.182a13.415,13.415,0,0,1,1.191.649c.367.238.584.692.93.957s.76.443,1.084.735.611.621.91.937.566.659.84,1,.476.724.724,1.084.581.657.8,1.036.506.722.694,1.116.266.838.421,1.246c.172.451.528.852.659,1.316s-.127,1.023-.038,1.5.327.938.376,1.418c.743.223.782-.089,1.557-.089s.856.417,1.566.107a15.869,15.869,0,0,0-.253-1.993c-.1-.449-.321-.867-.458-1.305s-.249-.887-.423-1.312-.554-.749-.763-1.159-.2-.932-.446-1.323-.545-.744-.817-1.115-.565-.725-.865-1.072-.483-.818-.812-1.141-.879-.4-1.233-.7-.637-.607-1-.858-.795-.377-1.173-.6S27.624,2.2,27.23,2.01s-.81-.336-1.22-.5-.779-.434-1.2-.565S23.923.862,23.494.76,22.641.579,22.207.505s-.829-.451-1.268-.5-.9.124-1.338.1C19.145.091,18.687.2,18.23.2s-.905.094-1.361.12S15.935.109,15.481.161s-.866.382-1.317.462-.9.125-1.341.236-.935.05-1.37.193-.815.428-1.238.6-.781.46-1.189.672-.937.19-1.327.436-.611.721-.976,1-.847.4-1.187.708-.555.737-.872,1.068-.84.483-1.128.838-.355.882-.613,1.259-.5.761-.723,1.158-.67.686-.865,1.1-.1.952-.259,1.381-.358.853-.483,1.3-.142.913-.228,1.37-.289.836-.337,1.3c.747.228.765.029,1.546.029a4.294,4.294,0,0,0,1.532-.1c.035-.386.219-.63.286-1.016" transform="translate(-0.014)" fill="#1d2021"/>
      <path id="Path_55" data-name="Path 55" d="M33.382,35.6c-.045.436-.086,1.027-.165,1.458s-.327.817-.44,1.24.093.946-.053,1.359-.358.813-.536,1.214-.349.817-.558,1.2-.524.717-.763,1.085-.6.648-.867.995-.551.672-.847,1c-.33.362-.57.812-.931,1.143s-.8.573-1.187.871-.813.532-1.225.8c-.392.22-.691.6-1.085.775-.414.181-.926.068-1.331.2-.435.143-.843.277-1.252.374-.456.108-.845.406-1.248.469-.49.076-.929.241-1.305.27a10.238,10.238,0,0,1-1.326.035,11.193,11.193,0,0,1-1.307-.078c-.37-.028-.793-.234-1.275-.308-.4-.061-.8-.24-1.25-.345-.4-.094-.814-.2-1.243-.337-.4-.129-.8-.27-1.209-.445a12.732,12.732,0,0,1-1.243-.414c-.4-.255-.861-.449-1.239-.735-.352-.266-.446-.842-.775-1.135s-.649-.573-.953-.891-.838-.432-1.116-.774-.621-.652-.871-1.015-.449-.776-.67-1.158-.47-.764-.66-1.162-.268-.856-.426-1.268-.176-.873-.3-1.3c-.142-.486-.4-.949-.49-1.444s-.116-.849-.166-1.352A3.438,3.438,0,0,0,1.562,35.6,8.529,8.529,0,0,0,0,35.761c.019.192.067.384.093.575.063.459.187.9.288,1.352s.032.952.17,1.392.326.875.5,1.3.349.867.559,1.279.6.728.84,1.121.409.839.682,1.211.618.691.922,1.04.557.748.888,1.071c.308.3.7.5,1.031.773s.768.388,1.116.634.491.81.857,1.029.873.193,1.255.384.769.358,1.164.52.727.5,1.133.632.863.1,1.278.2.791.384,1.212.463.84.221,1.266.273c.507.061,1.036,0,1.546.026a6.964,6.964,0,0,0,1.48-.1,1.161,1.161,0,0,1,.433-.081,1.542,1.542,0,0,0,.716.157c.468-.02.948.056,1.412.008s.942-.1,1.4-.18.839-.564,1.293-.673,1.021.176,1.466.033.846-.441,1.279-.618.751-.593,1.168-.805,1.017-.1,1.416-.348.683-.67,1.06-.953.659-.641,1-.946.762-.531,1.079-.863.742-.584,1.031-.94.319-.913.579-1.291.5-.76.729-1.158.425-.8.62-1.219.476-.79.635-1.221.34-.856.463-1.3.242-.915.325-1.375.071-.867.117-1.335a6.7,6.7,0,0,0-1.513-.174c-.806-.123-.862-.262-1.61-.058" transform="translate(0 -15.465)" fill="#1d2021"/>
      <path id="Path_56" data-name="Path 56" d="M33.2,16.174c.49-.323.77-.592.375-1.027-.465-.512-.659-.043-1.35-.043s-.692-.052-1.384-.052-.692.075-1.384.075-.691-.041-1.382-.041-.692.122-1.384.122-.692-.1-1.384-.1-.692-.068-1.384-.068-.694-.008-1.387-.008-.835-.347-1.325.143-.087.632-.087,1.325-.054.693-.054,1.386.133.693.133,1.387-.055.693-.055,1.386.012.694.012,1.387.018.694.018,1.387-.014.694-.014,1.388.036.692.036,1.386.028.694.028,1.387-.051.694-.051,1.388.052.694.052,1.388-.1.7-.1,1.39-.475.9,0,1.412c.434.471.664-.013,1.3-.013s.641.023,1.282.023.641.063,1.282.063.64-.129,1.28-.129.641.128,1.281.128.641-.159,1.283-.159.642.024,1.283.024.642.063,1.283.063.643-.019,1.285-.019.906.516,1.287,0,.22-.957-.308-1.335c-.558-.4-.748.035-1.434.035s-.685.122-1.369.122-.686-.106-1.371-.106-.685.055-1.371.055S27.441,32,26.755,32s-.687-.14-1.374-.14-.869.518-1.338.016c-.5-.537.068-.7.068-1.437s-.184-.735-.184-1.471.084-.735.084-1.471.087-.736.087-1.473-.525-.875-.041-1.43c.42-.484.592.043,1.233.043s.642-.14,1.284-.14.642-.032,1.285-.032.643,0,1.286,0,.643.039,1.286.039.644.079,1.288.079.789.374,1.256-.068c.443-.42.431-.722-.011-1.143-.464-.442-.6-.052-1.24-.052s-.642.011-1.284.011-.643-.058-1.285-.058-.643-.006-1.286-.006-.643.04-1.286.04-.644.014-1.288.014-.818.449-1.251-.027c-.477-.525-.06-.676-.06-1.384s.049-.709.049-1.418-.086-.709-.086-1.419-.016-.71-.016-1.421-.449-.939.033-1.46c.447-.483.7.007,1.358.007s.659.027,1.317.027S27.3,16.2,27.96,16.2s.659.04,1.319.04.659-.038,1.319-.038a6.116,6.116,0,0,1,1.334-.045c.659.1.72.387,1.271.023" transform="translate(-9.113 -6.494)" fill="#1d2021"/>
      <path id="Path_57" data-name="Path 57" d="M92.028,8.274v2.8h4.828v1.754H92.028v2.913H97.21v1.866H89.9V6.407H97.21V8.274Z" transform="translate(-39.166 -2.791)" fill="#0e0000" opacity="0"/>
      <path id="Path_58" data-name="Path 58" d="M118.414,15.065h-4.78l-.933,2.542h-2.124l4.249-11.2H117.3l4.249,11.2h-2.2Zm-.66-1.8L116.033,8.5l-1.738,4.763Z" transform="translate(-48.172 -2.791)" fill="#0e0000" opacity="0"/>
      <path id="Path_59" data-name="Path 59" d="M139.61,17.41a10.067,10.067,0,0,1-1.915-.66v-2.06a8.058,8.058,0,0,0,3.733,1.126,2.271,2.271,0,0,0,1.328-.354,1.145,1.145,0,0,0,.506-1,1.1,1.1,0,0,0-.282-.765,2.221,2.221,0,0,0-.7-.515q-.418-.2-1.191-.491a13.674,13.674,0,0,1-1.706-.74,3.282,3.282,0,0,1-1.126-1.006,2.818,2.818,0,0,1-.467-1.681,2.861,2.861,0,0,1,1.046-2.358,4.434,4.434,0,0,1,2.864-.845,7.608,7.608,0,0,1,1.674.185,6.438,6.438,0,0,1,1.513.539V8.8a6.473,6.473,0,0,0-3.138-.9,2.459,2.459,0,0,0-1.312.3.944.944,0,0,0-.475.845.973.973,0,0,0,.491.861,7.989,7.989,0,0,0,1.52.684,14.917,14.917,0,0,1,1.77.772,3.554,3.554,0,0,1,1.2,1.07,3.182,3.182,0,0,1,.538,1.81,3.1,3.1,0,0,1-1.078,2.5,4.318,4.318,0,0,1-2.881.909,8.279,8.279,0,0,1-1.915-.241" transform="translate(-59.984 -2.642)" fill="#0e0000" opacity="0"/>
      <path id="Path_60" data-name="Path 60" d="M162.95,8.354h-3.186V6.407h8.5V8.354h-3.186v9.253H162.95Z" transform="translate(-69.598 -2.791)" fill="#0e0000" opacity="0"/>
      <path id="Path_61" data-name="Path 61" d="M98.269,39.624v9.49H96.8V44.819H91.97v4.294H90.5v-9.49H91.97v3.859H96.8V39.624Z" transform="translate(-39.424 -17.262)" fill="#1d2021" opacity="0"/>
      <path id="Path_62" data-name="Path 62" d="M113.244,48.545a3.882,3.882,0,0,1-1.541-1.718,6.623,6.623,0,0,1,0-5.168,3.884,3.884,0,0,1,1.541-1.718,5.131,5.131,0,0,1,4.841,0,3.884,3.884,0,0,1,1.541,1.718,6.623,6.623,0,0,1,0,5.168,3.882,3.882,0,0,1-1.541,1.718,5.135,5.135,0,0,1-4.841,0m4.582-1.691a4.078,4.078,0,0,0,.757-2.611,4.078,4.078,0,0,0-.757-2.611,2.938,2.938,0,0,0-4.322,0,4.078,4.078,0,0,0-.757,2.611,4.078,4.078,0,0,0,.757,2.611,2.938,2.938,0,0,0,4.322,0" transform="translate(-48.434 -17.135)" fill="#1d2021" opacity="0"/>
      <path id="Path_63" data-name="Path 63" d="M141.757,39.624v9.49h-1.472l-4.827-6.845v6.845h-1.472v-9.49h1.472l4.827,6.831V39.624Z" transform="translate(-58.369 -17.262)" fill="#1d2021" opacity="0"/>
      <path id="Path_64" data-name="Path 64" d="M155.211,41.659a3.943,3.943,0,0,1,1.595-1.718,4.967,4.967,0,0,1,2.523-.606,5.828,5.828,0,0,1,2.85.709l-.013,1.5h-.055a4.226,4.226,0,0,0-1.22-.62,4.779,4.779,0,0,0-1.52-.239,2.914,2.914,0,0,0-2.346.927,3.966,3.966,0,0,0-.791,2.646,4.044,4.044,0,0,0,.757,2.611,2.716,2.716,0,0,0,2.242.933,3.86,3.86,0,0,0,1.071-.143,2.388,2.388,0,0,0,.852-.429V45.47h-1.909V44.215h3.382v3.791a8.765,8.765,0,0,1-1.732.872,5.059,5.059,0,0,1-1.691.273,4.754,4.754,0,0,1-2.468-.607,3.879,3.879,0,0,1-1.547-1.7,6.534,6.534,0,0,1,.02-5.181" transform="translate(-67.377 -17.135)" fill="#1d2021" opacity="0"/>
      <path id="Path_65" data-name="Path 65" d="M187.42,44.941l-1.227,1.419v2.754H184.72v-9.49h1.473v4.663l3.995-4.663h1.8l-3.559,4.131,3.818,5.359h-1.841Z" transform="translate(-80.471 -17.262)" fill="#1d2021" opacity="0"/>
      <path id="Path_66" data-name="Path 66" d="M204.085,48.545a3.882,3.882,0,0,1-1.541-1.718,6.623,6.623,0,0,1,0-5.168,3.884,3.884,0,0,1,1.541-1.718,5.131,5.131,0,0,1,4.841,0,3.884,3.884,0,0,1,1.541,1.718,6.623,6.623,0,0,1,0,5.168,3.883,3.883,0,0,1-1.541,1.718,5.135,5.135,0,0,1-4.841,0m4.582-1.691a4.078,4.078,0,0,0,.757-2.611,4.078,4.078,0,0,0-.757-2.611,2.938,2.938,0,0,0-4.322,0,4.078,4.078,0,0,0-.757,2.611,4.078,4.078,0,0,0,.757,2.611,2.938,2.938,0,0,0,4.322,0" transform="translate(-88.006 -17.135)" fill="#1d2021" opacity="0"/>
      <path id="Path_67" data-name="Path 67" d="M232.6,39.624v9.49h-1.472L226.3,42.269v6.845h-1.472v-9.49H226.3l4.827,6.831V39.624Z" transform="translate(-97.941 -17.262)" fill="#1d2021" opacity="0"/>
      <path id="Path_68" data-name="Path 68" d="M246.052,41.659a3.948,3.948,0,0,1,1.6-1.718,4.963,4.963,0,0,1,2.522-.606,5.831,5.831,0,0,1,2.85.709l-.014,1.5h-.055a4.219,4.219,0,0,0-1.22-.62,4.777,4.777,0,0,0-1.52-.239,2.912,2.912,0,0,0-2.345.927,3.963,3.963,0,0,0-.791,2.646,4.044,4.044,0,0,0,.757,2.611,2.717,2.717,0,0,0,2.243.933,3.859,3.859,0,0,0,1.071-.143,2.39,2.39,0,0,0,.852-.429V45.47h-1.909V44.215h3.382v3.791a8.762,8.762,0,0,1-1.731.872,5.062,5.062,0,0,1-1.691.273,4.751,4.751,0,0,1-2.468-.607,3.88,3.88,0,0,1-1.547-1.7,6.541,6.541,0,0,1,.02-5.181" transform="translate(-106.951 -17.135)" fill="#1d2021" opacity="0"/>
    </g>
  </g>
</svg>
