<?xml version="1.0" encoding="UTF-8"?>
<svg id="Layer_1" data-name="Layer 1" xmlns="http://www.w3.org/2000/svg" viewBox="0 0 16 16">
  <defs>
    <style>
      .cls-1 {
        fill: #1d2021;
      }
    </style>
  </defs>
  <g id="Group_5228" data-name="Group 5228">
    <path class="cls-1" d="m8,16C3.59,16,0,12.41,0,8S3.59,0,8,0s8,3.59,8,8-3.59,8-8,8Zm0-15c-3.86,0-7,3.14-7,7s3.14,7,7,7,7-3.14,7-7S11.86,1,8,1Z"/>
    <path class="cls-1" d="m12.24,7.47h-5.66c.77-.57,1.4-1.35,1.61-2.35l-.98-.2c-.35,1.69-2.43,2.57-3.44,2.57v1c1.02,0,3.1.88,3.44,2.57l.98-.2c-.21-1.03-.88-1.83-1.67-2.4h5.73v-1Z"/>
  </g>
</svg>