<svg id="Group_4963" data-name="Group 4963" xmlns="http://www.w3.org/2000/svg" xmlns:xlink="http://www.w3.org/1999/xlink" width="20.584" height="18.158" viewBox="0 0 20.584 18.158">
  <defs>
    <clipPath id="clip-path">
      <rect id="Rectangle_1121" data-name="Rectangle 1121" width="20.584" height="18.158" transform="translate(0 0)" fill="none"/>
    </clipPath>
  </defs>
  <g id="Group_4962" data-name="Group 4962" clip-path="url(#clip-path)">
    <path id="Path_3574" data-name="Path 3574" d="M16.566,9.063A5.064,5.064,0,0,0,13,4.243V5.834a3.556,3.556,0,0,1,0,6.457v1.591a5.062,5.062,0,0,0,3.566-4.819" fill="#fff"/>
    <path id="Path_3575" data-name="Path 3575" d="M20.584,9.134A9.1,9.1,0,0,0,13,.179V1.694a7.591,7.591,0,0,1,0,14.88v1.515a9.1,9.1,0,0,0,7.584-8.955" fill="#fff"/>
    <path id="Path_3576" data-name="Path 3576" d="M11,0,4,5.674H1v6.81H4l7,5.674Z" fill="#fff"/>
  </g>
</svg>
