<?xml version="1.0" encoding="UTF-8"?>
<svg id="Layer_1" data-name="Layer 1" xmlns="http://www.w3.org/2000/svg" xmlns:xlink="http://www.w3.org/1999/xlink" viewBox="0 0 12 12">
  <defs>
    <style>
      .cls-1, .cls-2 {
        fill: none;
      }

      .cls-3 {
        fill: #1d2021;
      }

      .cls-2 {
        clip-path: url(#clippath);
      }
    </style>
    <clipPath id="clippath">
      <rect class="cls-1" width="12" height="12"/>
    </clipPath>
  </defs>
  <g class="cls-2">
    <path class="cls-3" d="m10.98,5.02v-2.93c0-.25-.21-.45-.46-.45H1.48c-.25,0-.45.2-.46.45v2.93c-.3.27-.46.65-.47,1.06v3.82c0,.25.21.46.46.46s.46-.21.46-.46v-.54h9.06v.54c0,.25.21.46.46.46s.46-.21.46-.46v-3.82c0-.4-.17-.78-.47-1.06Zm-.45,2.83v.62H1.47v-.62h9.06Zm0-1.77v.87H1.47v-.86c0-.31.25-.55.56-.55h7.94c.3,0,.55.25.56.55Zm-3.12-1.85h.98c.25,0,.45.17.51.4h-2c.06-.23.26-.4.51-.4Zm-3.79,0h.98c.25,0,.45.17.51.4h-2c.05-.23.26-.4.51-.4Zm6.44.4s-.07,0-.1,0h-.15c-.07-.73-.69-1.3-1.43-1.3h-.99c-.67,0-1.25.47-1.4,1.11-.15-.63-.72-1.11-1.39-1.11h-.99c-.74,0-1.36.57-1.43,1.3h-.15s-.07,0-.1,0v-2.08h8.13v2.08Z"/>
  </g>
</svg>