<?xml version="1.0" encoding="UTF-8"?>
<svg id="Layer_1" data-name="Layer 1" xmlns="http://www.w3.org/2000/svg" viewBox="0 0 22 22">
  <defs>
    <style>
      .cls-1 {
        fill: #1a1818;
      }
    </style>
  </defs>
  <path class="cls-1" d="m20.79,10.67c-.18-.2-4.42-5.01-9.79-5.01S1.39,10.47,1.21,10.67l-.29.33.29.33c.18.2,4.42,5.01,9.79,5.01s9.61-4.8,9.79-5.01l.29-.33-.29-.33Zm-13.62.33c0-.37.08-.71.19-1.04.3.86,1.11,1.47,2.06,1.47,1.21,0,2.19-.98,2.19-2.19,0-.73-.36-1.37-.91-1.77.1,0,.2-.03.3-.03,2.11,0,3.83,1.6,3.83,3.56s-1.72,3.56-3.83,3.56-3.83-1.6-3.83-3.56Zm3.44-1.76c0,.66-.54,1.19-1.19,1.19s-1.19-.54-1.19-1.19.54-1.19,1.19-1.19,1.19.54,1.19,1.19Zm-1.8-2.28c-1.56.76-2.64,2.28-2.64,4.04s1.08,3.29,2.64,4.04c-3.15-.83-5.68-3.17-6.54-4.04.85-.87,3.38-3.22,6.54-4.04Zm4.38,8.09c1.56-.76,2.64-2.28,2.64-4.04s-1.08-3.28-2.64-4.04c3.15.83,5.68,3.17,6.53,4.04-.85.87-3.38,3.22-6.54,4.04Z"/>
</svg>