<svg xmlns="http://www.w3.org/2000/svg" width="16.705" height="12.529" viewBox="0 0 16.705 12.529">
  <path id="envelope" d="M16.388,68.137a.2.2,0,0,1,.316.153v6.672a1.566,1.566,0,0,1-1.566,1.566H1.566A1.566,1.566,0,0,1,0,74.963V68.294a.2.2,0,0,1,.316-.153c.731.568,1.7,1.289,5.028,3.706.688.5,1.85,1.56,3.008,1.553,1.165.01,2.349-1.07,3.011-1.553C14.692,69.429,15.657,68.7,16.388,68.137ZM8.352,72.352c.757.013,1.847-.953,2.395-1.351,4.33-3.142,4.659-3.416,5.657-4.2a.781.781,0,0,0,.3-.617v-.62A1.566,1.566,0,0,0,15.139,64H1.566A1.566,1.566,0,0,0,0,65.566v.62a.786.786,0,0,0,.3.617c1,.78,1.328,1.057,5.657,4.2C6.506,71.4,7.6,72.365,8.352,72.352Z" transform="translate(0 -64)" fill="#1d2021"/>
</svg>
