<?xml version="1.0" encoding="UTF-8"?>
<svg id="Layer_1" data-name="Layer 1" xmlns="http://www.w3.org/2000/svg" xmlns:xlink="http://www.w3.org/1999/xlink" viewBox="0 0 12 12">
  <defs>
    <style>
      .cls-1, .cls-2 {
        fill: none;
      }

      .cls-3 {
        fill: #1d2021;
      }

      .cls-2 {
        clip-path: url(#clippath);
      }
    </style>
    <clipPath id="clippath">
      <rect class="cls-1" width="12" height="12"/>
    </clipPath>
  </defs>
  <g class="cls-2">
    <path class="cls-3" d="m10.67.92H1.33c-.27,0-.5.22-.5.49v9.17c0,.27.23.49.5.49h9.35c.27,0,.5-.22.5-.49V1.41c0-.27-.23-.49-.5-.49Zm-3.51,3.79c.27,0,.49-.22.5-.49V1.91h2.51v3.88h-2.45c-.27,0-.5.22-.5.49,0,.27.23.49.5.49h2.45v3.32h-2.51v-2.06c0-.27-.23-.49-.5-.49h-.02c-1.49,0-2.78,1.09-3.03,2.55H1.83v-3.32h3.68c.27,0,.5-.22.5-.49,0-.27-.23-.49-.5-.49h-1.22v-2.35c0-.27-.23-.49-.5-.49s-.49.22-.5.49v2.35h-1.46V1.91h4.84v2.32c0,.27.23.49.5.49Zm-.5,3.87v1.5h-1.53c.19-.75.78-1.32,1.53-1.5Z"/>
  </g>
</svg>