<?xml version="1.0" encoding="UTF-8"?>
<svg id="Layer_1" data-name="Layer 1" xmlns="http://www.w3.org/2000/svg" xmlns:xlink="http://www.w3.org/1999/xlink" viewBox="0 0 12 12">
  <defs>
    <style>
      .cls-1, .cls-2 {
        fill: none;
      }

      .cls-3 {
        fill: #1d2021;
      }

      .cls-2 {
        clip-path: url(#clippath);
      }
    </style>
    <clipPath id="clippath">
      <rect class="cls-1" width="12" height="12"/>
    </clipPath>
  </defs>
  <g class="cls-2">
    <g>
      <path class="cls-3" d="m10.54,10.03c-.01-.16,0-.33,0-.49h0c0-.11,0-.21,0-.31-.03-1.6-1.18-2.77-2.74-2.79-.56,0-1.15-.01-1.75-.01s-1.22,0-1.89.01c-1.33.01-2.42.94-2.64,2.24-.05.27-.05.54-.05.82,0,.17,0,.36-.01.53-.03.41.11.68.45.85h0s.33,0,.33,0h0c.34-.16.49-.44.46-.85-.02-.27-.01-.54,0-.84.03-.89.63-1.49,1.51-1.5.56,0,1.13-.01,1.72-.01s1.19,0,1.83.01c.77,0,1.36.48,1.48,1.16.06.38.06.77.04,1.18-.02.43.12.69.45.85h0s.33,0,.33,0h0c.34-.16.49-.44.46-.85Z"/>
      <path class="cls-3" d="m7.73,1.85c-.47-.47-1.08-.73-1.73-.73h0c-.65,0-1.26.26-1.73.73-.47.47-.72,1.08-.72,1.72,0,1.34,1.1,2.43,2.44,2.43h0c1.34,0,2.43-1.09,2.45-2.42,0-.64-.25-1.25-.71-1.72Zm-1.77,2.9c-.65-.02-1.18-.56-1.16-1.2,0-.32.14-.62.37-.84.22-.22.52-.34.82-.34h.02c.32,0,.63.15.85.39.22.23.33.53.32.83-.03.66-.57,1.18-1.23,1.16Z"/>
    </g>
  </g>
</svg>